HIERARCHY
ROOT Hips
{
	OFFSET -0.001795 -0.223333 0.028219
	CHANNELS 6 Xposition Yposition Zposition Zrotation Yrotation Xrotation 
	JOINT LeftUpLeg
	{
		OFFSET 0.069520 -0.091406 -0.006815
		CHANNELS 3 Zrotation Yrotation Xrotation
		JOINT LeftLeg
		{
			OFFSET 0.034277 -0.375199 -0.004496
			CHANNELS 3 Zrotation Yrotation Xrotation
			JOINT LeftFoot
			{
				OFFSET -0.013596 -0.397961 -0.043693
				CHANNELS 3 Zrotation Yrotation Xrotation
				JOINT LeftToe
				{
					OFFSET 0.026358 -0.055791 0.119288
					CHANNELS 3 Zrotation Yrotation Xrotation
					End Site
					{
						OFFSET 0.000000 0.000000 0.000000
					}
				}
			}
		}
	}
	JOINT RightUpLeg
	{
		OFFSET -0.067670 -0.090522 -0.004320
		CHANNELS 3 Zrotation Yrotation Xrotation
		JOINT RightLeg
		{
			OFFSET -0.038290 -0.382569 -0.008850
			CHANNELS 3 Zrotation Yrotation Xrotation
			JOINT RightFoot
			{
				OFFSET 0.015774 -0.398415 -0.042312
				CHANNELS 3 Zrotation Yrotation Xrotation
				JOINT RightToe
				{
					OFFSET -0.025372 -0.048144 0.123348
					CHANNELS 3 Zrotation Yrotation Xrotation
					End Site
					{
						OFFSET 0.000000 0.000000 0.000000
					}
				}
			}
		}
	}
	JOINT Spine
	{
		OFFSET -0.002533 0.108963 -0.026696
		CHANNELS 3 Zrotation Yrotation Xrotation
		JOINT Spine1
		{
			OFFSET 0.005487 0.135180 0.001092
			CHANNELS 3 Zrotation Yrotation Xrotation
			JOINT Spine2
			{
				OFFSET 0.001457 0.052922 0.025425
				CHANNELS 3 Zrotation Yrotation Xrotation
				JOINT Neck
				{
					OFFSET -0.002778 0.213870 -0.042857
					CHANNELS 3 Zrotation Yrotation Xrotation
					JOINT Head
					{
						OFFSET 0.005152 0.064970 0.051349
						CHANNELS 3 Zrotation Yrotation Xrotation
						End Site
						{
							OFFSET 0.000000 0.000000 0.000000
						}
					}
				}
				JOINT LeftShoulder
				{
					OFFSET 0.078845 0.121749 -0.034090
					CHANNELS 3 Zrotation Yrotation Xrotation
					JOINT LeftArm
					{
						OFFSET 0.090977 0.030469 -0.008868
						CHANNELS 3 Zrotation Yrotation Xrotation
						JOINT LeftForeArm
						{
							OFFSET 0.259612 -0.012772 -0.027456
							CHANNELS 3 Zrotation Yrotation Xrotation
							JOINT LeftHand
							{
								OFFSET 0.249234 0.008986 -0.001171
								CHANNELS 3 Zrotation Yrotation Xrotation
								End Site
								{
									OFFSET 0.000000 0.000000 0.000000
								}
							}
						}
					}
				}
				JOINT RightShoulder
				{
					OFFSET -0.081759 0.118833 -0.038615
					CHANNELS 3 Zrotation Yrotation Xrotation
					JOINT RightArm
					{
						OFFSET -0.096012 0.032551 -0.009143
						CHANNELS 3 Zrotation Yrotation Xrotation
						JOINT RightForeArm
						{
							OFFSET -0.253742 -0.013329 -0.021401
							CHANNELS 3 Zrotation Yrotation Xrotation
							JOINT RightHand
							{
								OFFSET -0.255298 0.007772 -0.005559
								CHANNELS 3 Zrotation Yrotation Xrotation
								End Site
								{
									OFFSET 0.000000 0.000000 0.000000
								}
							}
						}
					}
				}
			}
		}
	}
}
MOTION
Frames: 8
Frame Time: 0.050000
0.000000 0.811365 0.000000 6.397968 -21.797485 5.884732 -5.713490 -2.037395 -19.468492 -9.926895 7.445956 35.002383 8.965458 32.051320 -33.981654 0.000000 0.000000 0.000000 -20.843639 2.940852 -52.959997 31.835552 -9.393952 41.750130 -25.870714 -51.961291 11.164780 0.000000 0.000000 0.000000 0.893585 0.273279 27.159620 14.332293 0.709452 -39.159833 6.180692 11.938622 46.521480 -4.788910 4.766836 -27.467423 0.000000 0.000000 0.000000 2.951927 7.802185 -2.827247 -19.363785 -22.441428 -1.438330 76.757210 -46.160591 -34.237261 0.000000 0.000000 0.000000 -1.239129 -19.804078 -7.518665 51.853686 -12.613021 -14.312213 -3.087979 29.325505 1.060397 0.000000 0.000000 0.000000 
-0.010705 0.819380 0.029659 6.614293 -15.772815 9.853662 -7.573018 -2.924563 -24.765678 -6.328201 5.014066 40.483100 8.468367 22.514918 -31.285434 0.000000 0.000000 0.000000 -29.305111 -1.735725 -50.931583 41.626247 -12.215495 30.672891 -33.029158 -56.393005 18.872949 0.000000 0.000000 0.000000 4.704102 -1.252100 22.509556 16.606179 -0.934831 -33.692341 -0.036375 5.686117 40.136635 -7.349169 6.139277 -18.482060 0.000000 0.000000 0.000000 -6.068229 19.078191 -8.590931 -17.142988 -20.963863 -1.657796 88.456462 -59.066224 -51.849114 0.000000 0.000000 0.000000 -3.582800 -11.863213 -3.945022 56.912136 -18.315388 -18.383114 -6.051344 31.477828 -0.080475 0.000000 0.000000 0.000000 
-0.015907 0.805297 0.059488 7.679650 -17.496062 11.358185 -8.437984 -3.500299 -31.683809 -6.000170 6.581269 49.786890 8.107749 18.659821 -31.675812 0.000000 0.000000 0.000000 -35.060855 -4.021546 -59.637636 42.329615 -15.169958 35.999368 -28.414359 -52.341812 17.152550 0.000000 0.000000 0.000000 4.533360 -1.153638 23.254775 16.576135 -2.275463 -27.029592 -0.189459 7.547672 35.632686 -8.054804 7.392298 -10.071990 0.000000 0.000000 0.000000 -7.866302 21.301741 -10.189725 -22.545781 -22.750687 -1.296470 84.947723 -60.718656 -49.359928 0.000000 0.000000 0.000000 -0.790344 -13.752148 -5.072212 53.438262 -19.767458 -16.991352 -1.812508 32.775328 0.954508 0.000000 0.000000 0.000000 
-0.021951 0.776341 0.090595 6.673888 -18.370743 11.665207 -10.518188 -4.468087 -40.938051 -3.449110 7.237571 65.301821 8.998980 18.973549 -28.357195 0.000000 0.000000 0.000000 -38.469512 -5.496111 -63.607922 48.194153 -20.957992 41.721827 -27.189663 -49.317676 19.071946 0.000000 0.000000 0.000000 8.263866 -2.086516 29.372610 18.687038 -1.589634 -31.475708 -0.547355 10.619972 41.398023 -6.385745 6.449699 -15.791275 0.000000 0.000000 0.000000 -16.656483 19.271735 -11.461251 -10.963886 -27.011115 -1.943414 67.944706 -63.793984 -41.866139 0.000000 0.000000 0.000000 -3.148879 -16.602691 -5.936518 56.451308 -26.392120 -21.072656 0.877730 33.585826 2.123787 0.000000 0.000000 0.000000 
-0.026980 0.748347 0.124648 3.570127 -22.360427 15.979790 -8.398774 -3.025715 -47.737710 -2.528821 8.813887 73.303852 7.911855 12.653171 -29.640405 0.000000 0.000000 0.000000 -36.926773 -3.410305 -67.967137 49.962407 -23.283726 44.895909 -15.522358 -37.143088 6.521893 0.000000 0.000000 0.000000 10.974714 -2.610248 31.101533 17.534773 -1.619859 -29.792768 -1.976852 14.877424 41.963835 -3.379521 4.445468 -23.724688 0.000000 0.000000 0.000000 -12.486699 22.393869 -12.744456 -23.096486 -16.490111 -2.449159 100.463693 -62.228103 -66.509922 0.000000 0.000000 0.000000 -4.202595 -19.375479 -6.932606 54.414008 -25.629787 -19.420441 0.179968 29.419548 1.683716 0.000000 0.000000 0.000000 
-0.031896 0.729175 0.158140 2.854299 -25.077847 15.703374 -8.110090 -1.953652 -52.888629 0.863305 7.195776 81.851311 6.680952 9.879360 -18.436303 0.000000 0.000000 0.000000 -31.135625 0.786434 -70.661858 46.330625 -23.307888 52.401929 -13.788781 -38.572321 -5.035478 0.000000 0.000000 0.000000 8.016081 -0.953010 40.257995 21.644744 -0.137169 -36.855471 -2.996975 20.403188 44.844932 0.729928 2.867951 -24.922185 0.000000 0.000000 0.000000 -15.472227 22.361735 -14.719804 -24.759004 -6.592612 -3.501941 144.180415 -58.316718 -116.520734 0.000000 0.000000 0.000000 0.938097 -17.182441 -6.828955 50.385910 -24.565510 -17.038680 -8.201976 27.311317 0.043467 0.000000 0.000000 0.000000 
-0.031838 0.717262 0.194735 -2.401494 -29.988761 25.253411 -5.914410 1.662685 -60.801678 1.507057 7.135717 84.435098 6.317229 4.927583 -26.302169 0.000000 0.000000 0.000000 -28.119008 5.103518 -76.929314 41.874204 -22.683301 58.209732 -9.901643 -33.454342 -16.683720 0.000000 0.000000 0.000000 8.346778 -0.757870 37.657781 8.379388 -0.271416 -31.542268 8.498440 20.532272 42.097911 -0.481650 2.971144 -23.631013 0.000000 0.000000 0.000000 -25.593670 20.975669 -17.694591 -28.897318 4.199950 -5.643797 162.966014 -50.189039 -137.389914 0.000000 0.000000 0.000000 -0.905207 -19.755614 -7.578217 49.647691 -19.040489 -14.459152 -9.074071 23.183943 -0.356080 0.000000 0.000000 0.000000 
-0.030847 0.705337 0.227360 0.348705 -26.249796 25.770437 -9.549774 -1.361739 -65.131730 -0.043482 6.510139 92.406854 4.701923 6.041792 -11.390681 0.000000 0.000000 0.000000 -26.623803 4.271782 -78.718078 38.092547 -23.893722 65.014030 -9.813765 -31.910240 -17.613612 0.000000 0.000000 0.000000 5.644168 0.202544 41.823136 15.692087 -0.972717 -31.244506 -1.417876 19.357472 37.649861 1.553256 1.927798 -25.604319 0.000000 0.000000 0.000000 -26.840688 20.589576 -18.225541 -31.099214 1.611311 -5.351158 148.804878 -48.158902 -110.230829 0.000000 0.000000 0.000000 6.633225 -14.619968 -6.337800 45.394253 -13.012975 -11.319713 -10.796043 21.471515 -0.586358 0.000000 0.000000 0.000000 
